<svg xmlns="http://www.w3.org/2000/svg" width="660" height="560" font-family="Segoe UI, Arial, sans-serif">
  <rect width="660" height="560" fill="#08090A"/>
  <text x="40" y="32" font-size="17" font-weight="600" fill="#E4E5E9">Eleven agent test suites, seven planted faults</text>
  <text x="40" y="52" font-size="12" fill="#B9BEC6">Does the suite go red when the function is broken on purpose? Green check = caught, amber = survived unnoticed</text>

  <!-- column headers, x start 190, col width 64 -->
  <text x="222" y="92" font-size="10.5" fill="#B9BEC6" text-anchor="middle">M1</text>
  <text x="222" y="104" font-size="9" fill="#8A8F98" text-anchor="middle">case bug</text>
  <text x="286" y="92" font-size="10.5" fill="#B9BEC6" text-anchor="middle">M2</text>
  <text x="286" y="104" font-size="9" fill="#8A8F98" text-anchor="middle">drop .svg</text>
  <text x="350" y="92" font-size="10.5" fill="#B9BEC6" text-anchor="middle">M3</text>
  <text x="350" y="104" font-size="9" fill="#8A8F98" text-anchor="middle">drop .xhtml</text>
  <text x="414" y="92" font-size="10.5" fill="#B9BEC6" text-anchor="middle">M4</text>
  <text x="414" y="104" font-size="9" fill="#8A8F98" text-anchor="middle">None flip</text>
  <text x="478" y="92" font-size="10.5" fill="#B9BEC6" text-anchor="middle">M5</text>
  <text x="478" y="104" font-size="9" fill="#8A8F98" text-anchor="middle">always on</text>
  <text x="542" y="92" font-size="10.5" fill="#B9BEC6" text-anchor="middle">M6</text>
  <text x="542" y="104" font-size="9" fill="#8A8F98" text-anchor="middle">always off</text>
  <text x="606" y="92" font-size="10.5" fill="#B9BEC6" text-anchor="middle">M7</text>
  <text x="606" y="104" font-size="9" fill="#8A8F98" text-anchor="middle">drop .html</text>

  <!-- M1 column spotlight -->
  <rect x="192" y="110" width="60" height="386" fill="#10161B" stroke="#1E2630"/>

  <!-- rows: y start 112, row height 28; cell rect w=56 h=24 centered per col -->
  <!-- helper: cols x = 194,258,322,386,450,514,578 -->

  <!-- Human suite -->
  <text x="40" y="130" font-size="11" fill="#E4E5E9">Flask's own 491 tests</text>
  <rect x="194" y="114" width="56" height="24" fill="#B5822A" rx="2"/><text x="222" y="130" font-size="11" fill="#08090A" text-anchor="middle">✗</text>
  <rect x="258" y="114" width="56" height="24" fill="#B5822A" rx="2"/><text x="286" y="130" font-size="11" fill="#08090A" text-anchor="middle">✗</text>
  <rect x="322" y="114" width="56" height="24" fill="#B5822A" rx="2"/><text x="350" y="130" font-size="11" fill="#08090A" text-anchor="middle">✗</text>
  <rect x="386" y="114" width="56" height="24" fill="#45A87D" rx="2"/><text x="414" y="130" font-size="11" fill="#08090A" text-anchor="middle">✓</text>
  <rect x="450" y="114" width="56" height="24" fill="#45A87D" rx="2"/><text x="478" y="130" font-size="11" fill="#08090A" text-anchor="middle">✓</text>
  <rect x="514" y="114" width="56" height="24" fill="#45A87D" rx="2"/><text x="542" y="130" font-size="11" fill="#08090A" text-anchor="middle">✓</text>
  <rect x="578" y="114" width="56" height="24" fill="#45A87D" rx="2"/><text x="606" y="130" font-size="11" fill="#08090A" text-anchor="middle">✓</text>

  <!-- group label: scar -->
  <text x="40" y="162" font-size="10" fill="#8A8F98">WRITTEN WHILE FIXING THE BUG</text>

  <!-- scar rows y: 168,196,224,252,280 -->
  <text x="40" y="184" font-size="11" fill="#E4E5E9">fix-run 1</text>
  <rect x="194" y="168" width="56" height="24" fill="#45A87D" rx="2"/><text x="222" y="184" font-size="11" fill="#08090A" text-anchor="middle">✓</text>
  <rect x="258" y="168" width="56" height="24" fill="#45A87D" rx="2"/><text x="286" y="184" font-size="11" fill="#08090A" text-anchor="middle">✓</text>
  <rect x="322" y="168" width="56" height="24" fill="#45A87D" rx="2"/><text x="350" y="184" font-size="11" fill="#08090A" text-anchor="middle">✓</text>
  <rect x="386" y="168" width="56" height="24" fill="#B5822A" rx="2"/><text x="414" y="184" font-size="11" fill="#08090A" text-anchor="middle">✗</text>
  <rect x="450" y="168" width="56" height="24" fill="#45A87D" rx="2"/><text x="478" y="184" font-size="11" fill="#08090A" text-anchor="middle">✓</text>
  <rect x="514" y="168" width="56" height="24" fill="#45A87D" rx="2"/><text x="542" y="184" font-size="11" fill="#08090A" text-anchor="middle">✓</text>
  <rect x="578" y="168" width="56" height="24" fill="#45A87D" rx="2"/><text x="606" y="184" font-size="11" fill="#08090A" text-anchor="middle">✓</text>

  <text x="40" y="212" font-size="11" fill="#E4E5E9">fix-run 2</text>
  <rect x="194" y="196" width="56" height="24" fill="#45A87D" rx="2"/><text x="222" y="212" font-size="11" fill="#08090A" text-anchor="middle">✓</text>
  <rect x="258" y="196" width="56" height="24" fill="#45A87D" rx="2"/><text x="286" y="212" font-size="11" fill="#08090A" text-anchor="middle">✓</text>
  <rect x="322" y="196" width="56" height="24" fill="#45A87D" rx="2"/><text x="350" y="212" font-size="11" fill="#08090A" text-anchor="middle">✓</text>
  <rect x="386" y="196" width="56" height="24" fill="#45A87D" rx="2"/><text x="414" y="212" font-size="11" fill="#08090A" text-anchor="middle">✓</text>
  <rect x="450" y="196" width="56" height="24" fill="#45A87D" rx="2"/><text x="478" y="212" font-size="11" fill="#08090A" text-anchor="middle">✓</text>
  <rect x="514" y="196" width="56" height="24" fill="#45A87D" rx="2"/><text x="542" y="212" font-size="11" fill="#08090A" text-anchor="middle">✓</text>
  <rect x="578" y="196" width="56" height="24" fill="#45A87D" rx="2"/><text x="606" y="212" font-size="11" fill="#08090A" text-anchor="middle">✓</text>

  <text x="40" y="240" font-size="11" fill="#E4E5E9">fix-run 3</text>
  <rect x="194" y="224" width="56" height="24" fill="#45A87D" rx="2"/><text x="222" y="240" font-size="11" fill="#08090A" text-anchor="middle">✓</text>
  <rect x="258" y="224" width="56" height="24" fill="#45A87D" rx="2"/><text x="286" y="240" font-size="11" fill="#08090A" text-anchor="middle">✓</text>
  <rect x="322" y="224" width="56" height="24" fill="#B5822A" rx="2"/><text x="350" y="240" font-size="11" fill="#08090A" text-anchor="middle">✗</text>
  <rect x="386" y="224" width="56" height="24" fill="#45A87D" rx="2"/><text x="414" y="240" font-size="11" fill="#08090A" text-anchor="middle">✓</text>
  <rect x="450" y="224" width="56" height="24" fill="#45A87D" rx="2"/><text x="478" y="240" font-size="11" fill="#08090A" text-anchor="middle">✓</text>
  <rect x="514" y="224" width="56" height="24" fill="#45A87D" rx="2"/><text x="542" y="240" font-size="11" fill="#08090A" text-anchor="middle">✓</text>
  <rect x="578" y="224" width="56" height="24" fill="#45A87D" rx="2"/><text x="606" y="240" font-size="11" fill="#08090A" text-anchor="middle">✓</text>

  <text x="40" y="268" font-size="11" fill="#E4E5E9">fix-run 4</text>
  <rect x="194" y="252" width="56" height="24" fill="#45A87D" rx="2"/><text x="222" y="268" font-size="11" fill="#08090A" text-anchor="middle">✓</text>
  <rect x="258" y="252" width="56" height="24" fill="#45A87D" rx="2"/><text x="286" y="268" font-size="11" fill="#08090A" text-anchor="middle">✓</text>
  <rect x="322" y="252" width="56" height="24" fill="#B5822A" rx="2"/><text x="350" y="268" font-size="11" fill="#08090A" text-anchor="middle">✗</text>
  <rect x="386" y="252" width="56" height="24" fill="#45A87D" rx="2"/><text x="414" y="268" font-size="11" fill="#08090A" text-anchor="middle">✓</text>
  <rect x="450" y="252" width="56" height="24" fill="#45A87D" rx="2"/><text x="478" y="268" font-size="11" fill="#08090A" text-anchor="middle">✓</text>
  <rect x="514" y="252" width="56" height="24" fill="#45A87D" rx="2"/><text x="542" y="268" font-size="11" fill="#08090A" text-anchor="middle">✓</text>
  <rect x="578" y="252" width="56" height="24" fill="#45A87D" rx="2"/><text x="606" y="268" font-size="11" fill="#08090A" text-anchor="middle">✓</text>

  <text x="40" y="296" font-size="11" fill="#E4E5E9">fix-run 5</text>
  <rect x="194" y="280" width="56" height="24" fill="#45A87D" rx="2"/><text x="222" y="296" font-size="11" fill="#08090A" text-anchor="middle">✓</text>
  <rect x="258" y="280" width="56" height="24" fill="#45A87D" rx="2"/><text x="286" y="296" font-size="11" fill="#08090A" text-anchor="middle">✓</text>
  <rect x="322" y="280" width="56" height="24" fill="#45A87D" rx="2"/><text x="350" y="296" font-size="11" fill="#08090A" text-anchor="middle">✓</text>
  <rect x="386" y="280" width="56" height="24" fill="#45A87D" rx="2"/><text x="414" y="296" font-size="11" fill="#08090A" text-anchor="middle">✓</text>
  <rect x="450" y="280" width="56" height="24" fill="#45A87D" rx="2"/><text x="478" y="296" font-size="11" fill="#08090A" text-anchor="middle">✓</text>
  <rect x="514" y="280" width="56" height="24" fill="#45A87D" rx="2"/><text x="542" y="296" font-size="11" fill="#08090A" text-anchor="middle">✓</text>
  <rect x="578" y="280" width="56" height="24" fill="#45A87D" rx="2"/><text x="606" y="296" font-size="11" fill="#08090A" text-anchor="middle">✓</text>

  <!-- group: cold on fixed -->
  <text x="40" y="328" font-size="10" fill="#8A8F98">COLD, SHOWN THE FIXED CODE</text>
  <text x="40" y="350" font-size="11" fill="#E4E5E9">cold run 1–3</text>
  <text x="40" y="364" font-size="9" fill="#8A8F98">(all three identical)</text>
  <rect x="194" y="336" width="56" height="24" fill="#45A87D" rx="2"/><text x="222" y="352" font-size="11" fill="#08090A" text-anchor="middle">✓</text>
  <rect x="258" y="336" width="56" height="24" fill="#45A87D" rx="2"/><text x="286" y="352" font-size="11" fill="#08090A" text-anchor="middle">✓</text>
  <rect x="322" y="336" width="56" height="24" fill="#45A87D" rx="2"/><text x="350" y="352" font-size="11" fill="#08090A" text-anchor="middle">✓</text>
  <rect x="386" y="336" width="56" height="24" fill="#45A87D" rx="2"/><text x="414" y="352" font-size="11" fill="#08090A" text-anchor="middle">✓</text>
  <rect x="450" y="336" width="56" height="24" fill="#45A87D" rx="2"/><text x="478" y="352" font-size="11" fill="#08090A" text-anchor="middle">✓</text>
  <rect x="514" y="336" width="56" height="24" fill="#45A87D" rx="2"/><text x="542" y="352" font-size="11" fill="#08090A" text-anchor="middle">✓</text>
  <rect x="578" y="336" width="56" height="24" fill="#45A87D" rx="2"/><text x="606" y="352" font-size="11" fill="#08090A" text-anchor="middle">✓</text>

  <!-- group: canon on broken -->
  <text x="40" y="396" font-size="10" fill="#8A8F98">COLD, SHOWN THE BROKEN CODE</text>
  <text x="40" y="418" font-size="11" fill="#E4E5E9">broken-code run 1</text>
  <rect x="194" y="404" width="56" height="24" fill="#B5822A" rx="2"/><text x="222" y="420" font-size="11" fill="#08090A" text-anchor="middle">✗</text>
  <rect x="258" y="404" width="56" height="24" fill="#45A87D" rx="2"/><text x="286" y="420" font-size="11" fill="#08090A" text-anchor="middle">✓</text>
  <rect x="322" y="404" width="56" height="24" fill="#45A87D" rx="2"/><text x="350" y="420" font-size="11" fill="#08090A" text-anchor="middle">✓</text>
  <rect x="386" y="404" width="56" height="24" fill="#45A87D" rx="2"/><text x="414" y="420" font-size="11" fill="#08090A" text-anchor="middle">✓</text>
  <rect x="450" y="404" width="56" height="24" fill="#45A87D" rx="2"/><text x="478" y="420" font-size="11" fill="#08090A" text-anchor="middle">✓</text>
  <rect x="514" y="404" width="56" height="24" fill="#45A87D" rx="2"/><text x="542" y="420" font-size="11" fill="#08090A" text-anchor="middle">✓</text>
  <rect x="578" y="404" width="56" height="24" fill="#45A87D" rx="2"/><text x="606" y="420" font-size="11" fill="#08090A" text-anchor="middle">✓</text>

  <text x="40" y="446" font-size="11" fill="#E4E5E9">broken-code run 2</text>
  <text x="40" y="460" font-size="9" fill="#B5822A">also blocks the real fix</text>
  <rect x="194" y="432" width="56" height="24" fill="#B5822A" rx="2"/><text x="222" y="448" font-size="11" fill="#08090A" text-anchor="middle">✗</text>
  <rect x="258" y="432" width="56" height="24" fill="#45A87D" rx="2"/><text x="286" y="448" font-size="11" fill="#08090A" text-anchor="middle">✓</text>
  <rect x="322" y="432" width="56" height="24" fill="#45A87D" rx="2"/><text x="350" y="448" font-size="11" fill="#08090A" text-anchor="middle">✓</text>
  <rect x="386" y="432" width="56" height="24" fill="#45A87D" rx="2"/><text x="414" y="448" font-size="11" fill="#08090A" text-anchor="middle">✓</text>
  <rect x="450" y="432" width="56" height="24" fill="#45A87D" rx="2"/><text x="478" y="448" font-size="11" fill="#08090A" text-anchor="middle">✓</text>
  <rect x="514" y="432" width="56" height="24" fill="#45A87D" rx="2"/><text x="542" y="448" font-size="11" fill="#08090A" text-anchor="middle">✓</text>
  <rect x="578" y="432" width="56" height="24" fill="#45A87D" rx="2"/><text x="606" y="448" font-size="11" fill="#08090A" text-anchor="middle">✓</text>

  <text x="40" y="474" font-size="11" fill="#E4E5E9">broken-code run 3</text>
  <text x="40" y="488" font-size="9" fill="#B5822A">also blocks the real fix</text>
  <rect x="194" y="460" width="56" height="24" fill="#B5822A" rx="2"/><text x="222" y="476" font-size="11" fill="#08090A" text-anchor="middle">✗</text>
  <rect x="258" y="460" width="56" height="24" fill="#45A87D" rx="2"/><text x="286" y="476" font-size="11" fill="#08090A" text-anchor="middle">✓</text>
  <rect x="322" y="460" width="56" height="24" fill="#45A87D" rx="2"/><text x="350" y="476" font-size="11" fill="#08090A" text-anchor="middle">✓</text>
  <rect x="386" y="460" width="56" height="24" fill="#45A87D" rx="2"/><text x="414" y="476" font-size="11" fill="#08090A" text-anchor="middle">✓</text>
  <rect x="450" y="460" width="56" height="24" fill="#45A87D" rx="2"/><text x="478" y="476" font-size="11" fill="#08090A" text-anchor="middle">✓</text>
  <rect x="514" y="460" width="56" height="24" fill="#45A87D" rx="2"/><text x="542" y="476" font-size="11" fill="#08090A" text-anchor="middle">✓</text>
  <rect x="578" y="460" width="56" height="24" fill="#45A87D" rx="2"/><text x="606" y="476" font-size="11" fill="#08090A" text-anchor="middle">✓</text>

  <text x="40" y="514" font-size="11" fill="#B9BEC6">The M1 column is the point: M1 is the real, sixteen-year-old bug. Only suites that saw the fix — or made it — guard it.</text>
  <text x="40" y="538" font-size="10" fill="#5A6069">One 10-line Flask function; 7 single-change hand-written mutants; one mainstream CLI agent, defaults, Aug 2026. n=3 per cold</text>
  <text x="40" y="552" font-size="10" fill="#5A6069">condition, 5 fix-run suites from our previous experiment. Cold runs shown collapsed: all three scored identically. Our measurement.</text>
</svg>
